<svg xmlns="http://www.w3.org/2000/svg" xmlns:xlink="http://www.w3.org/1999/xlink" height="131" style="enable-background:new 0 0 512 512;" version="1.1" width="460" xml:space="preserve"><rect id="backgroundrect" width="100%" height="100%" x="0" y="0" fill="none" stroke="none"/><g class="currentLayer" style=""><title>Layer 1</title><g id="形状_1_3_" style="enable-background:new    ;" class=""><g id="形状_1"><g id="svg_1"><path d="M17.391,26.372996093750004 H0 v77.115 h48.053 v-14.645 H17.391 V26.372996093750004 zM63.037000000000006,23.285996093749986 c-5.606,0 -9.268,3.775 -9.268,8.695 c0,4.804 3.547,8.694 9.039,8.694 c5.834,0 9.381,-3.891 9.381,-8.694 C72.076,27.060996093749992 68.642,23.285996093749986 63.037000000000006,23.285996093749986 zM54.227000000000004,103.48799609374998 h17.392 v-55.947 H54.227000000000004 V103.48799609374998 zM115.09,46.281996093749996 c-9.381,0 -14.987,5.377 -17.275,9.039 h-0.3440000000000001 l-0.802,-7.78 h-15.102 c0.22900000000000004,5.035 0.457,10.869 0.457,17.848 v38.1 h17.392 v-32.264 c0,-1.6030000000000002 0.11400000000000002,-3.204 0.5710000000000001,-4.349 c1.259,-3.202 4.12,-6.521 8.926,-6.521 c6.292,0 8.809,4.92 8.809,12.127 v31.006 h17.392 v-33.065 C135.113,53.94799609374999 126.53200000000001,46.281996093749996 115.09,46.281996093749996 zM199.408,47.54099609375001 h-20.937 l-11.327,16.818 c-1.373,2.06 -2.745,4.348 -4.004,6.75 h-0.22900000000000004 v-48.854 H145.52 v81.232 h17.392 v-17.506 l4.347,-5.491 l13.616,22.997 h21.395 l-22.882,-33.294 L199.408,47.54099609375001 zM227.437,46.281996093749996 c-19.448,0 -28.259,15.675 -28.259,29.861 c0,17.506 10.870000000000001,28.488 29.863,28.488 c7.551,0 14.529,-1.1440000000000001 20.25,-3.547 l-2.286,-11.784 c-4.6930000000000005,1.602 -9.498,2.403 -15.447,2.403 c-8.124,0 -15.332,-3.434 -15.789,-10.641 h36.039 c0.22900000000000004,-1.259 0.5720000000000001,-3.891 0.5720000000000001,-6.864 C252.37900000000002,60.35499609375 245.51600000000002,46.281996093749996 227.437,46.281996093749996 zM215.653,69.16399609374997 c0.457,-4.575 3.433,-11.327 10.755,-11.327 c8.009,0 9.838000000000001,7.094 9.838000000000001,11.327 H215.653 zM313.472,86.78399609374998 v-64.528 H296.08 v30.205 h-0.22900000000000004 c-2.518,-3.776 -7.78,-6.293 -14.759,-6.293 c-13.386,0 -25.17,10.983 -25.056,29.861 c0,17.392 10.641,28.719 23.912,28.719 c7.207,0 14.072,-3.205 17.506,-9.384 h0.3420000000000001 l0.6860000000000002,8.124 h15.447 C313.7,99.71199609374997 313.472,93.07599609375 313.472,86.78399609374998 zM296.08,78.54699609375001 c0,1.372 -0.11300000000000002,2.745 -0.3430000000000001,4.004 c-1.03,4.9190000000000005 -5.148,8.351 -10.183,8.351 c-7.207,0 -11.9,-5.95 -11.9,-15.444 c0,-8.811 4.005,-15.903 12.016,-15.903 c5.378,0 9.152,3.891 10.182,8.466 c0.22900000000000004,1.029 0.22900000000000004,2.287 0.22900000000000004,3.204 V78.54699609375001 z" style="fill-rule:evenodd;clip-rule:evenodd;" id="svg_2"/></g></g></g><g id="形状_1_2_" style="enable-background:new    ;" class=""><g id="形状_1_1_"><g id="svg_3"><path d="M446.968,-0.000003906249986584953 H343.771 c-7.199,0 -13.032,5.854 -13.032,13.075 V117.71599609375 c0,7.222 5.833,13.075 13.032,13.075 h103.196 c7.199,0 13.032,-5.854 13.032,-13.075 V13.075996093750007 C460,5.854996093750003 454.167,-0.000003906249986584953 446.968,-0.000003906249986584953 zM372.216,103.48799609374998 h-17.391000000000002 v-55.947 h17.391000000000002 V103.48799609374998 zM363.406,40.674996093749996 c-5.491,0 -9.038,-3.891 -9.038,-8.694 c0,-4.92 3.66,-8.695 9.267,-8.695 c5.605,0 9.039,3.775 9.152,8.695 C372.787,36.78499609375001 369.24,40.674996093749996 363.406,40.674996093749996 zM435.711,103.48799609374998 h-17.39 v-31.006 c0,-7.207 -2.519,-12.127 -8.812,-12.127 c-4.805,0 -7.664,3.318 -8.923,6.521 c-0.457,1.145 -0.5730000000000001,2.746 -0.5730000000000001,4.349 v32.264 h-17.39 v-38.1 c0,-6.979 -0.22900000000000004,-12.813 -0.457,-17.848 h15.102 l0.802,7.78 h0.3430000000000001 c2.2880000000000003,-3.662 7.8950000000000005,-9.039 17.276,-9.039 c11.441,0 20.021,7.666 20.021,24.141 V103.48799609374998 z" style="fill-rule:evenodd;clip-rule:evenodd;fill:#006699;" id="svg_4"/></g></g></g></g></svg>